<?xml version="1.0" standalone="no"?>
<!DOCTYPE svg PUBLIC "-//W3C//DTD SVG 20010904//EN"
 "http://www.w3.org/TR/2001/REC-SVG-20010904/DTD/svg10.dtd">
<svg version="1.0" xmlns="http://www.w3.org/2000/svg"
 width="750.000000pt" height="816.000000pt" viewBox="0 0 750.000000 816.000000"
 preserveAspectRatio="xMidYMid meet">

<g transform="translate(0.000000,816.000000) scale(0.100000,-0.100000)"
fill="#000000" stroke="none">
<path d="M695 8110 c-60 -39 -80 -111 -49 -177 24 -49 53 -64 157 -79 240 -36
467 -218 859 -690 62 -75 114 -139 116 -144 2 -5 -43 -40 -100 -78 -57 -39
-152 -110 -213 -158 -141 -113 -436 -407 -549 -549 -884 -1109 -1056 -2597
-446 -3863 104 -216 142 -276 184 -296 97 -46 196 16 196 122 0 34 -12 65 -55
144 -211 381 -349 835 -395 1297 -13 134 -13 490 0 622 90 894 512 1699 1188
2264 126 106 346 265 366 265 6 0 58 -57 116 -127 335 -409 575 -630 807 -747
179 -90 318 -100 616 -48 204 37 321 40 501 17 821 -108 1472 -734 1616 -1554
19 -108 28 -306 19 -439 -16 -252 -80 -488 -194 -717 -72 -144 -79 -186 -45
-242 37 -61 114 -80 179 -45 57 31 164 241 236 462 231 714 80 1483 -404 2061
-364 436 -892 707 -1476 760 -156 14 -269 7 -447 -26 -171 -33 -292 -41 -354
-26 -145 37 -298 146 -530 376 -204 203 -275 285 -623 715 -135 167 -289 352
-342 410 -178 196 -394 368 -554 441 -148 67 -319 89 -380 49z"/>
<path d="M3679 7567 c-96 -64 -84 -199 21 -241 28 -11 72 -16 143 -16 286 0
638 -61 959 -166 1206 -394 2094 -1452 2278 -2712 152 -1044 -200 -2108 -943
-2853 -58 -58 -132 -129 -165 -157 l-59 -51 -134 162 c-250 303 -505 545 -698
661 -104 63 -235 112 -336 125 -92 13 -116 8 -207 -42 -163 -91 -412 -172
-628 -203 -171 -24 -471 -15 -635 20 -884 187 -1505 949 -1505 1846 0 475 166
903 493 1271 41 46 79 94 86 106 46 89 -47 205 -152 188 -34 -6 -54 -19 -104
-71 -300 -306 -509 -734 -580 -1185 -24 -157 -24 -472 1 -624 117 -725 547
-1311 1191 -1625 207 -101 378 -156 610 -197 144 -25 519 -25 666 0 221 37
438 106 621 198 93 47 100 49 142 39 156 -35 299 -132 517 -349 175 -176 433
-477 423 -493 -4 -6 -50 -38 -103 -73 -884 -572 -1988 -698 -2977 -340 -154
56 -351 145 -464 209 -104 59 -161 69 -213 37 -61 -38 -82 -111 -51 -177 19
-39 70 -73 249 -162 420 -209 856 -331 1335 -373 170 -15 592 -6 750 16 571
79 1093 273 1549 576 57 39 107 68 111 67 4 -2 64 -70 133 -153 318 -381 551
-594 772 -705 169 -85 349 -115 423 -70 81 49 80 180 -2 229 -17 10 -61 21
-100 25 -233 23 -478 216 -883 700 l-125 149 78 70 c664 591 1078 1376 1199
2277 22 163 31 554 16 731 -62 745 -329 1417 -797 2006 -159 201 -474 498
-711 671 -297 218 -734 431 -1100 536 -316 91 -682 146 -968 146 -79 0 -97 -3
-126 -23z"/>
</g>
</svg>
